# xmcd
#
# Track frame offsets: 
#        150
#        15504
#        28853
#        42314
#        54784
#        68281
#        82463
#        95159
#        109188
#        124992
#        137855
#        152104
#
# Disc length: 2275 seconds
#
# Revision: 0
# Processed by: cddbd v1.5.2PL0 Copyright (c) Steve Scherf et al.
# Submitted via: ExactAudioCopy v0.95a4
#
DISCID=a208e10c
DTITLE=Soulgrass - Soulgrass
DYEAR=2002
DGENRE=Bluegrass
TTITLE0=Downtown
TTITLE1=I Want You Back
TTITLE2=She Believes
TTITLE3=Help
TTITLE4=You Didn't Come Home
TTITLE5=A Cold Wind Blows
TTITLE6=You Call This Love
TTITLE7=Gimme Some Lovin'
TTITLE8=Love Please Come Home
TTITLE9=Believe In You
TTITLE10=Stay With Me
TTITLE11=I Can't Stop The Rain
EXTD=
EXTT0=
EXTT1=
EXTT2=
EXTT3=
EXTT4=
EXTT5=
EXTT6=
EXTT7=
EXTT8=
EXTT9=
EXTT10=
EXTT11=
PLAYORDER=
